<svg xmlns="http://www.w3.org/2000/svg" width="85.333" height="32" viewBox="0 0 85.333 32" fill="none">
  <path d="M 82.526 2.445 L 80.079 0 L 77.667 2.445 L 80.079 4.926 L 82.526 2.445 Z" fill="currentColor" fill-rule="nonzero"/>
  <path d="M 80.366 9.086 L 77.415 15.216 L 81.432 18.701 C 79.7 19.317 78.137 19.517 76.947 19.485 C 74.932 19.412 73.457 17.916 71.225 14.486 C 69.425 11.713 67.878 10.436 66.114 10.436 C 64.134 10.436 62.227 12.37 59.888 15.763 C 58.16 18.281 56.793 19.449 55.245 19.449 C 53.841 19.449 52.69 18.536 52.69 15.107 L 52.69 0 L 52.33 0 L 48.875 4.233 L 49.451 16.821 C 49.739 22.987 51.575 25.468 54.85 25.468 C 56.989 25.468 58.533 24.176 59.533 22.687 L 67.05 27.219 L 70.541 21.126 L 70.721 21.126 C 72.053 24.41 73.924 25.505 76.048 25.505 C 77.632 25.505 79.323 25.213 80.979 24.775 C 82.419 20.068 82.886 17.696 82.886 15.434 C 82.886 13.354 81.879 10.91 80.727 9.085 L 80.368 9.085 L 80.366 9.086 Z M 60.706 16.673 C 61.442 15.839 62.232 15.483 63.055 15.508 C 65.161 15.508 67.433 18.194 69.298 21.603 L 60.706 16.673 Z" fill="currentColor" fill-rule="nonzero"/>
  <path d="M 32.607 28.931 L 30.16 26.417 L 27.389 29.227 L 30.16 32 L 32.607 29.519 L 35.055 32 L 37.826 29.227 L 35.055 26.417 L 32.607 28.931 Z" fill="currentColor" fill-rule="nonzero"/>
  <path d="M 5.218 3.503 L 7.666 5.984 L 10.437 3.211 L 7.666 0.402 L 5.217 2.917 L 2.735 0.402 L 0 3.211 L 2.735 6.021 L 5.218 3.503 Z" fill="currentColor" fill-rule="nonzero"/>
  <path d="M 46.212 4.306 L 43.44 1.496 L 40.705 4.306 L 43.44 7.115 L 46.212 4.306 Z" fill="currentColor" fill-rule="nonzero"/>
  <path d="M 35.198 6.276 L 36.89 4.16 L 36.782 3.831 L 17.383 10.472 L 15.728 12.625 L 15.8 12.953 L 35.198 6.276 Z" fill="currentColor" fill-rule="nonzero"/>
  <path d="M 43.8 8.793 L 40.849 14.924 L 44.845 18.391 C 42.762 19.059 40.407 19.448 38.258 19.448 C 34.911 19.448 34.802 18.098 34.802 14.595 L 34.802 13.026 L 33.723 13.026 L 32.446 17.744 C 27.549 19.004 22.637 19.485 18.895 19.485 C 13.388 19.485 11.912 18.536 11.912 14.194 L 11.912 4.889 L 11.553 4.889 L 8.206 8.282 L 8.236 9.629 L 6.946 10.326 C 2.627 12.661 0.9 14.376 0.9 17.915 C 0.9 21.127 2.915 22.659 5.399 22.659 C 6.335 22.659 7.199 22.513 7.954 22.184 L 8.805 19.647 C 9.9 23.839 13.11 25.505 18.32 25.505 C 21.955 25.505 26.669 24.994 31.025 23.899 L 32.068 20.688 L 32.32 20.688 C 32.698 23.913 34.14 25.406 37.575 25.468 C 40.095 25.505 42.326 25.139 44.414 24.482 C 45.853 19.958 46.321 17.696 46.321 15.506 C 46.321 13.062 45.314 10.653 44.162 8.793 L 43.803 8.793 L 43.8 8.793 Z M 5.399 16.638 C 3.887 16.638 3.023 16.383 3.023 15.799 C 3.023 15.252 3.563 14.924 5.075 14.303 L 8.31 12.953 L 8.386 16.347 C 8.386 16.373 8.388 16.398 8.388 16.423 C 7.51 16.564 6.424 16.638 5.399 16.638 Z" fill="currentColor" fill-rule="nonzero"/>
  <path d="M 80.095 5.996 L 77.631 3.466 L 74.86 6.312 L 77.631 9.086 L 80.095 6.62 L 82.526 9.086 L 85.333 6.312 L 82.526 3.466 L 80.095 5.996 Z" fill="currentColor" fill-rule="nonzero"/>
</svg>
